<?xml version="1.0" standalone="no"?>
<!DOCTYPE svg PUBLIC "-//W3C//DTD SVG 20010904//EN"
 "http://www.w3.org/TR/2001/REC-SVG-20010904/DTD/svg10.dtd">
<svg version="1.0" xmlns="http://www.w3.org/2000/svg"
 width="1086.000000pt" height="1086.000000pt" viewBox="0 0 1086.000000 1086.000000"
 preserveAspectRatio="xMidYMid meet">
<metadata>
Created by potrace 1.14, written by Peter Selinger 2001-2017
</metadata>
<g transform="translate(0.000000,1086.000000) scale(0.100000,-0.100000)"
fill="#000000" stroke="none">
<path d="M5160 10854 c-799 -48 -1503 -236 -2191 -585 -519 -264 -948 -577
-1375 -1003 -445 -446 -768 -896 -1039 -1451 -302 -618 -479 -1270 -535 -1970
-14 -180 -14 -640 0 -820 92 -1153 516 -2190 1264 -3090 133 -159 489 -514
651 -649 700 -580 1488 -968 2340 -1150 143 -31 213 -44 420 -76 302 -47 907
-60 1235 -26 923 94 1736 379 2480 871 1306 863 2177 2239 2389 3775 40 291
46 389 46 755 0 366 -6 464 -46 755 -183 1326 -867 2555 -1901 3414 -846 703
-1851 1121 -2958 1231 -150 15 -647 27 -780 19z m415 -1834 c162 -56 279 -193
305 -360 14 -90 14 -4550 0 -4640 -23 -144 -121 -275 -255 -341 -68 -33 -74
-34 -190 -34 -114 0 -123 2 -188 32 -80 38 -173 122 -210 191 -61 112 -57 -50
-57 2472 0 2493 -3 2356 51 2462 47 92 156 183 264 220 71 25 205 24 280 -2z
m-1433 -1341 c165 -55 280 -191 308 -361 13 -84 14 -4099 0 -4182 -14 -86 -61
-178 -126 -247 -242 -253 -668 -138 -760 206 -11 41 -14 425 -14 2130 0 1849
2 2087 16 2140 64 246 337 395 576 314z m2799 11 c181 -34 334 -187 369 -369
7 -36 10 -824 10 -2335 0 -2485 3 -2359 -56 -2466 -58 -107 -154 -186 -268
-222 -94 -30 -229 -22 -319 20 -79 36 -172 120 -210 190 -62 114 -57 -71 -55
2502 l3 2345 37 78 c63 131 176 223 311 252 77 17 110 18 178 5z m1491 -11
c116 -39 214 -123 269 -232 46 -89 49 -133 49 -822 0 -407 -4 -674 -11 -715
-24 -147 -116 -269 -255 -336 -252 -121 -558 21 -628 291 -24 89 -24 1411 0
1500 38 148 154 268 304 316 78 25 195 24 272 -2z m-5769 -2014 c178 -37 319
-178 356 -353 7 -36 11 -252 11 -660 0 -659 -2 -683 -56 -783 -38 -68 -126
-152 -198 -188 -252 -124 -554 4 -637 270 -18 57 -19 101 -19 704 0 616 1 646
20 708 47 151 188 275 347 306 70 13 100 12 176 -4z"/>
</g>
</svg>
